<svg width="335" height="53" viewBox="0 0 335 53" fill="none" xmlns="http://www.w3.org/2000/svg">
<g filter="url(#filter0_d_7_62)">
<rect x="4" width="327" height="45" rx="10" fill="#E6A340"/>
<path d="M106.405 30.2C105.565 30.2 104.785 30.075 104.065 29.825C103.345 29.575 102.695 29.245 102.115 28.835C101.545 28.415 101.045 27.965 100.615 27.485L102.115 25.1C102.245 25.44 102.46 25.765 102.76 26.075C103.07 26.385 103.43 26.66 103.84 26.9C104.25 27.14 104.68 27.33 105.13 27.47C105.59 27.61 106.04 27.68 106.48 27.68C107.14 27.68 107.665 27.575 108.055 27.365C108.445 27.145 108.64 26.855 108.64 26.495C108.64 26.215 108.55 25.985 108.37 25.805C108.2 25.615 108 25.465 107.77 25.355C107.55 25.235 107.36 25.13 107.2 25.04C107.08 24.98 106.86 24.89 106.54 24.77C106.23 24.64 105.88 24.5 105.49 24.35C105.1 24.2 104.73 24.06 104.38 23.93C104.03 23.79 103.755 23.675 103.555 23.585C102.065 22.915 101.32 21.88 101.32 20.48C101.32 20.03 101.405 19.59 101.575 19.16C101.755 18.72 102.025 18.32 102.385 17.96C102.745 17.6 103.205 17.315 103.765 17.105C104.325 16.895 104.995 16.79 105.775 16.79C106.625 16.79 107.38 16.885 108.04 17.075C108.7 17.255 109.28 17.485 109.78 17.765C110.29 18.045 110.725 18.34 111.085 18.65L109.705 20.96C108.595 19.86 107.34 19.31 105.94 19.31C105.35 19.31 104.9 19.375 104.59 19.505C104.29 19.625 104.085 19.765 103.975 19.925C103.875 20.075 103.825 20.2 103.825 20.3C103.825 20.47 103.885 20.64 104.005 20.81C104.135 20.98 104.42 21.16 104.86 21.35C105.04 21.43 105.28 21.53 105.58 21.65C105.89 21.76 106.23 21.885 106.6 22.025C106.98 22.165 107.35 22.315 107.71 22.475C108.08 22.625 108.415 22.78 108.715 22.94C109.075 23.14 109.445 23.385 109.825 23.675C110.205 23.965 110.525 24.325 110.785 24.755C111.055 25.175 111.19 25.69 111.19 26.3C111.19 26.67 111.12 27.08 110.98 27.53C110.84 27.97 110.595 28.395 110.245 28.805C109.895 29.215 109.41 29.55 108.79 29.81C108.17 30.07 107.375 30.2 106.405 30.2ZM117.056 30.185C116.456 30.185 115.981 30.055 115.631 29.795C115.281 29.545 115.026 29.195 114.866 28.745C114.706 28.295 114.601 27.78 114.551 27.2C114.511 26.62 114.491 26.01 114.491 25.37C114.491 24.71 114.516 24.025 114.566 23.315C113.896 23.405 113.251 23.52 112.631 23.66L112.166 21.305C112.996 21.085 113.881 20.925 114.821 20.825C114.891 20.315 114.966 19.78 115.046 19.22C115.126 18.65 115.216 18.05 115.316 17.42L117.896 17.645C117.776 18.165 117.671 18.685 117.581 19.205C117.491 19.715 117.411 20.21 117.341 20.69C117.901 20.69 118.426 20.705 118.916 20.735C119.416 20.755 119.876 20.795 120.296 20.855L119.996 23.21C119.646 23.17 119.281 23.145 118.901 23.135C118.531 23.115 118.156 23.105 117.776 23.105C117.546 23.105 117.316 23.11 117.086 23.12C117.026 23.85 116.986 24.475 116.966 24.995C116.956 25.515 116.951 25.885 116.951 26.105C116.951 26.655 116.981 27.05 117.041 27.29C117.111 27.53 117.221 27.65 117.371 27.65C117.541 27.65 117.731 27.595 117.941 27.485C118.151 27.365 118.356 27.205 118.556 27.005C118.766 26.805 118.941 26.59 119.081 26.36L120.236 28.775C119.246 29.715 118.186 30.185 117.056 30.185ZM125.125 30.185C124.375 30.185 123.695 29.99 123.085 29.6C122.475 29.22 121.99 28.705 121.63 28.055C121.28 27.395 121.105 26.66 121.105 25.85C121.105 25.09 121.245 24.405 121.525 23.795C121.805 23.175 122.185 22.645 122.665 22.205C123.155 21.765 123.71 21.43 124.33 21.2C124.95 20.96 125.6 20.84 126.28 20.84C126.85 20.84 127.41 20.92 127.96 21.08C128 20.87 128.035 20.66 128.065 20.45L130.63 20.885C130.56 21.075 130.49 21.36 130.42 21.74C130.35 22.12 130.29 22.545 130.24 23.015C130.2 23.485 130.165 23.955 130.135 24.425C130.105 24.895 130.09 25.32 130.09 25.7C130.09 26.01 130.11 26.315 130.15 26.615C130.2 26.905 130.3 27.145 130.45 27.335C130.6 27.515 130.83 27.605 131.14 27.605H131.35L130.975 30.215C130.315 30.215 129.77 30.1 129.34 29.87C128.91 29.65 128.565 29.35 128.305 28.97C127.875 29.45 127.385 29.77 126.835 29.93C126.285 30.1 125.715 30.185 125.125 30.185ZM123.565 26.15C123.615 26.63 123.81 27.015 124.15 27.305C124.5 27.585 124.94 27.725 125.47 27.725C125.98 27.725 126.405 27.59 126.745 27.32C127.085 27.04 127.365 26.66 127.585 26.18C127.575 26.02 127.57 25.855 127.57 25.685C127.57 25.335 127.58 24.975 127.6 24.605C127.62 24.235 127.645 23.87 127.675 23.51C127.255 23.35 126.815 23.27 126.355 23.27C125.815 23.27 125.33 23.38 124.9 23.6C124.48 23.81 124.15 24.105 123.91 24.485C123.67 24.865 123.55 25.305 123.55 25.805C123.55 25.865 123.55 25.925 123.55 25.985C123.55 26.045 123.555 26.1 123.565 26.15ZM132.227 30.17C132.267 29.34 132.297 28.51 132.317 27.68C132.337 26.85 132.347 26.03 132.347 25.22C132.337 24.48 132.322 23.75 132.302 23.03C132.292 22.3 132.267 21.595 132.227 20.915L134.747 20.84C134.757 21.21 134.772 21.59 134.792 21.98C135.112 21.58 135.482 21.26 135.902 21.02C136.332 20.77 136.822 20.645 137.372 20.645C137.582 20.645 137.852 20.675 138.182 20.735C138.512 20.795 138.847 20.91 139.187 21.08L138.902 23.615C138.652 23.465 138.382 23.36 138.092 23.3C137.812 23.23 137.577 23.195 137.387 23.195C136.747 23.195 136.202 23.485 135.752 24.065C135.312 24.635 135.012 25.43 134.852 26.45C134.852 27.15 134.842 27.82 134.822 28.46C134.812 29.09 134.787 29.66 134.747 30.17H132.227ZM144.302 30.185C143.702 30.185 143.227 30.055 142.877 29.795C142.527 29.545 142.272 29.195 142.112 28.745C141.952 28.295 141.847 27.78 141.797 27.2C141.757 26.62 141.737 26.01 141.737 25.37C141.737 24.71 141.762 24.025 141.812 23.315C141.142 23.405 140.497 23.52 139.877 23.66L139.412 21.305C140.242 21.085 141.127 20.925 142.067 20.825C142.137 20.315 142.212 19.78 142.292 19.22C142.372 18.65 142.462 18.05 142.562 17.42L145.142 17.645C145.022 18.165 144.917 18.685 144.827 19.205C144.737 19.715 144.657 20.21 144.587 20.69C145.147 20.69 145.672 20.705 146.162 20.735C146.662 20.755 147.122 20.795 147.542 20.855L147.242 23.21C146.892 23.17 146.527 23.145 146.147 23.135C145.777 23.115 145.402 23.105 145.022 23.105C144.792 23.105 144.562 23.11 144.332 23.12C144.272 23.85 144.232 24.475 144.212 24.995C144.202 25.515 144.197 25.885 144.197 26.105C144.197 26.655 144.227 27.05 144.287 27.29C144.357 27.53 144.467 27.65 144.617 27.65C144.787 27.65 144.977 27.595 145.187 27.485C145.397 27.365 145.602 27.205 145.802 27.005C146.012 26.805 146.187 26.59 146.327 26.36L147.482 28.775C146.492 29.715 145.432 30.185 144.302 30.185ZM153.188 30.035C153.158 29.355 153.143 28.605 153.143 27.785C153.143 26.995 153.158 26.155 153.188 25.265C153.218 24.375 153.263 23.475 153.323 22.565C153.383 21.645 153.463 20.75 153.563 19.88C153.403 19.92 153.248 19.96 153.098 20C152.958 20.03 152.828 20.065 152.708 20.105L151.943 17.72C154.363 17.15 156.378 16.865 157.988 16.865C161.258 16.865 162.893 18.11 162.893 20.6C162.893 21.77 162.503 22.7 161.723 23.39C160.943 24.07 159.798 24.5 158.288 24.68C159.198 25.45 160.113 26.085 161.033 26.585C161.963 27.075 162.903 27.49 163.853 27.83L162.203 30.035C161.673 29.845 161.118 29.58 160.538 29.24C159.958 28.9 159.383 28.525 158.813 28.115C158.243 27.705 157.698 27.29 157.178 26.87C156.668 26.45 156.213 26.06 155.813 25.7C155.803 26.39 155.793 27.09 155.783 27.8C155.783 28.5 155.783 29.225 155.783 29.975L155.693 30.065C155.313 30.065 154.903 30.065 154.463 30.065C154.033 30.075 153.643 30.095 153.293 30.125L153.188 30.035ZM157.853 19.25C157.573 19.25 157.283 19.265 156.983 19.295C156.683 19.315 156.383 19.345 156.083 19.385C156.043 19.945 156.008 20.5 155.978 21.05C155.948 21.59 155.923 22.13 155.903 22.67C156.343 22.66 156.818 22.635 157.328 22.595C157.848 22.545 158.338 22.455 158.798 22.325C159.258 22.185 159.633 21.985 159.923 21.725C160.223 21.465 160.373 21.12 160.373 20.69C160.373 20.19 160.168 19.825 159.758 19.595C159.348 19.365 158.713 19.25 157.853 19.25ZM169.615 30.2C168.655 30.2 167.81 30.01 167.08 29.63C166.36 29.26 165.795 28.74 165.385 28.07C164.985 27.4 164.785 26.625 164.785 25.745C164.785 25.215 164.875 24.66 165.055 24.08C165.235 23.49 165.525 22.94 165.925 22.43C166.325 21.92 166.85 21.505 167.5 21.185C168.16 20.865 168.96 20.705 169.9 20.705C170.58 20.705 171.15 20.78 171.61 20.93C172.08 21.08 172.46 21.275 172.75 21.515C173.05 21.755 173.275 22.01 173.425 22.28C173.585 22.55 173.69 22.81 173.74 23.06C173.8 23.3 173.83 23.5 173.83 23.66C173.83 24.63 173.42 25.38 172.6 25.91C171.79 26.43 170.64 26.69 169.15 26.69C168.81 26.69 168.485 26.675 168.175 26.645C167.875 26.615 167.595 26.58 167.335 26.54C167.525 27.04 167.84 27.41 168.28 27.65C168.72 27.88 169.175 27.995 169.645 27.995C170.325 27.995 170.925 27.875 171.445 27.635C171.965 27.385 172.455 27.005 172.915 26.495L174.25 28.415C173.93 28.675 173.57 28.945 173.17 29.225C172.78 29.505 172.3 29.735 171.73 29.915C171.16 30.105 170.455 30.2 169.615 30.2ZM169.945 22.955C169.355 22.955 168.835 23.105 168.385 23.405C167.935 23.705 167.605 24.1 167.395 24.59C167.645 24.63 167.89 24.665 168.13 24.695C168.38 24.715 168.625 24.725 168.865 24.725C169.085 24.725 169.335 24.705 169.615 24.665C169.905 24.625 170.185 24.565 170.455 24.485C170.735 24.405 170.965 24.305 171.145 24.185C171.325 24.055 171.415 23.905 171.415 23.735C171.415 23.655 171.375 23.555 171.295 23.435C171.215 23.315 171.07 23.205 170.86 23.105C170.65 23.005 170.345 22.955 169.945 22.955ZM179.822 30.215C178.982 30.215 178.207 30.04 177.497 29.69C176.787 29.34 176.217 28.84 175.787 28.19C175.357 27.53 175.142 26.745 175.142 25.835C175.142 24.815 175.342 23.92 175.742 23.15C176.142 22.38 176.702 21.785 177.422 21.365C178.142 20.935 178.982 20.72 179.942 20.72C180.862 20.72 181.642 20.91 182.282 21.29C182.922 21.66 183.492 22.25 183.992 23.06L181.907 24.5C181.627 24.05 181.342 23.71 181.052 23.48C180.762 23.24 180.367 23.12 179.867 23.12C179.187 23.12 178.637 23.36 178.217 23.84C177.797 24.31 177.587 24.94 177.587 25.73C177.587 26.19 177.697 26.565 177.917 26.855C178.147 27.145 178.427 27.36 178.757 27.5C179.087 27.64 179.397 27.71 179.687 27.71C179.987 27.71 180.277 27.675 180.557 27.605C180.837 27.525 181.102 27.355 181.352 27.095C181.602 26.835 181.827 26.44 182.027 25.91L184.277 27.11C183.977 27.66 183.642 28.17 183.272 28.64C182.902 29.11 182.442 29.49 181.892 29.78C181.352 30.07 180.662 30.215 179.822 30.215ZM189.726 30.23C188.926 30.23 188.226 30.1 187.626 29.84C187.036 29.58 186.546 29.225 186.156 28.775C185.766 28.315 185.476 27.79 185.286 27.2C185.096 26.61 185.001 25.99 185.001 25.34C185.001 24.68 185.116 24.07 185.346 23.51C185.586 22.94 185.911 22.445 186.321 22.025C186.741 21.605 187.231 21.28 187.791 21.05C188.351 20.81 188.961 20.69 189.621 20.69C190.311 20.69 190.951 20.81 191.541 21.05C192.131 21.29 192.646 21.625 193.086 22.055C193.526 22.485 193.866 22.99 194.106 23.57C194.356 24.15 194.481 24.78 194.481 25.46C194.481 26.97 194.066 28.145 193.236 28.985C192.406 29.815 191.236 30.23 189.726 30.23ZM189.711 27.8C190.441 27.8 190.996 27.595 191.376 27.185C191.766 26.775 191.961 26.185 191.961 25.415C191.961 24.725 191.751 24.17 191.331 23.75C190.911 23.33 190.361 23.12 189.681 23.12C189.271 23.12 188.896 23.23 188.556 23.45C188.216 23.66 187.941 23.945 187.731 24.305C187.531 24.655 187.431 25.045 187.431 25.475C187.431 25.855 187.506 26.225 187.656 26.585C187.816 26.945 188.066 27.24 188.406 27.47C188.746 27.69 189.181 27.8 189.711 27.8ZM195.597 30.17C195.637 29.34 195.667 28.51 195.687 27.68C195.707 26.85 195.717 26.03 195.717 25.22C195.707 24.48 195.692 23.75 195.672 23.03C195.662 22.3 195.637 21.595 195.597 20.915L198.117 20.84C198.127 21.21 198.142 21.59 198.162 21.98C198.482 21.58 198.852 21.26 199.272 21.02C199.702 20.77 200.192 20.645 200.742 20.645C200.952 20.645 201.222 20.675 201.552 20.735C201.882 20.795 202.217 20.91 202.557 21.08L202.272 23.615C202.022 23.465 201.752 23.36 201.462 23.3C201.182 23.23 200.947 23.195 200.757 23.195C200.117 23.195 199.572 23.485 199.122 24.065C198.682 24.635 198.382 25.43 198.222 26.45C198.222 27.15 198.212 27.82 198.192 28.46C198.182 29.09 198.157 29.66 198.117 30.17H195.597ZM206.951 30.185C206.431 30.185 205.921 30.095 205.421 29.915C204.931 29.735 204.486 29.455 204.086 29.075C203.696 28.705 203.386 28.24 203.156 27.68C202.926 27.11 202.811 26.445 202.811 25.685C202.811 24.825 202.941 24.085 203.201 23.465C203.471 22.835 203.826 22.32 204.266 21.92C204.706 21.51 205.196 21.205 205.736 21.005C206.276 20.805 206.816 20.705 207.356 20.705C207.676 20.705 207.981 20.73 208.271 20.78C208.561 20.82 208.831 20.88 209.081 20.96C209.111 20.23 209.146 19.495 209.186 18.755C209.236 18.015 209.291 17.285 209.351 16.565L211.871 16.73C211.791 17.56 211.721 18.455 211.661 19.415C211.601 20.365 211.556 21.335 211.526 22.325C211.506 23.315 211.496 24.28 211.496 25.22C211.496 26.1 211.506 26.94 211.526 27.74C211.556 28.53 211.591 29.25 211.631 29.9L209.036 30.095C209.026 29.905 209.021 29.72 209.021 29.54C208.731 29.73 208.411 29.885 208.061 30.005C207.721 30.125 207.351 30.185 206.951 30.185ZM205.226 25.55C205.226 26.07 205.326 26.48 205.526 26.78C205.726 27.07 205.971 27.275 206.261 27.395C206.551 27.515 206.831 27.575 207.101 27.575C207.421 27.575 207.741 27.505 208.061 27.365C208.381 27.225 208.681 26.98 208.961 26.63C208.961 26.51 208.961 26.395 208.961 26.285C208.961 25.475 208.971 24.645 208.991 23.795C208.521 23.385 208.011 23.18 207.461 23.18C207.231 23.18 206.986 23.215 206.726 23.285C206.466 23.355 206.221 23.48 205.991 23.66C205.771 23.83 205.586 24.07 205.436 24.38C205.296 24.68 205.226 25.07 205.226 25.55ZM213.029 19.31C213.029 19.22 213.024 19.13 213.014 19.04C213.014 18.94 213.014 18.83 213.014 18.71C213.014 18.39 213.024 18.05 213.044 17.69C213.064 17.33 213.084 17.025 213.104 16.775L215.774 16.82C215.744 17.16 215.709 17.545 215.669 17.975C215.639 18.405 215.619 18.85 215.609 19.31H213.029ZM212.969 30.05C212.939 29.43 212.919 28.77 212.909 28.07C212.899 27.36 212.894 26.65 212.894 25.94C212.894 25.01 212.904 24.105 212.924 23.225C212.944 22.345 212.969 21.545 212.999 20.825L215.579 20.81C215.539 21.27 215.514 21.84 215.504 22.52C215.494 23.19 215.489 23.895 215.489 24.635C215.489 25.365 215.494 26.085 215.504 26.795C215.514 27.505 215.524 28.15 215.534 28.73C215.554 29.3 215.569 29.74 215.579 30.05H212.969ZM217.149 30.08C217.119 29.2 217.094 28.385 217.074 27.635C217.064 26.885 217.059 26.145 217.059 25.415C217.059 24.685 217.064 23.955 217.074 23.225C217.094 22.485 217.124 21.695 217.164 20.855H219.699C219.659 21.305 219.624 21.76 219.594 22.22C219.934 21.79 220.339 21.435 220.809 21.155C221.279 20.865 221.834 20.72 222.474 20.72C223.104 20.72 223.619 20.825 224.019 21.035C224.429 21.245 224.749 21.535 224.979 21.905C225.219 22.275 225.389 22.7 225.489 23.18C225.599 23.65 225.669 24.16 225.699 24.71C225.729 25.25 225.744 25.795 225.744 26.345C225.744 26.945 225.734 27.52 225.714 28.07C225.694 28.62 225.674 29.08 225.654 29.45C225.634 29.82 225.619 30.04 225.609 30.11H223.089C223.109 29.7 223.129 29.265 223.149 28.805C223.169 28.335 223.189 27.875 223.209 27.425C223.229 26.965 223.239 26.55 223.239 26.18C223.239 24.05 222.894 22.985 222.204 22.985C221.634 22.985 221.114 23.235 220.644 23.735C220.184 24.225 219.799 24.845 219.489 25.595C219.489 25.695 219.489 25.795 219.489 25.895C219.489 26.375 219.489 26.875 219.489 27.395C219.499 27.905 219.509 28.395 219.519 28.865C219.539 29.325 219.554 29.725 219.564 30.065L217.149 30.08ZM230.689 29.075C230.059 29.075 229.524 28.98 229.084 28.79C228.644 28.6 228.279 28.355 227.989 28.055C227.709 27.745 227.489 27.415 227.329 27.065C227.169 26.705 227.059 26.36 226.999 26.03C226.939 25.69 226.909 25.395 226.909 25.145C226.909 24.665 226.974 24.17 227.104 23.66C227.244 23.15 227.474 22.675 227.794 22.235C228.124 21.795 228.569 21.44 229.129 21.17C229.699 20.9 230.414 20.765 231.274 20.765C231.534 20.765 231.774 20.785 231.994 20.825C232.214 20.865 232.419 20.92 232.609 20.99V20.495H235.204C235.194 21.095 235.184 21.775 235.174 22.535C235.164 23.285 235.159 24.135 235.159 25.085C235.159 25.575 235.159 26.09 235.159 26.63C235.169 27.16 235.174 27.74 235.174 28.37C235.174 29.23 235.059 29.935 234.829 30.485C234.599 31.035 234.304 31.46 233.944 31.76C233.584 32.06 233.209 32.275 232.819 32.405C232.439 32.545 232.084 32.625 231.754 32.645C231.434 32.675 231.194 32.69 231.034 32.69C230.644 32.69 230.214 32.645 229.744 32.555C229.274 32.475 228.804 32.34 228.334 32.15C227.864 31.97 227.434 31.735 227.044 31.445L228.139 29.165C228.389 29.375 228.639 29.565 228.889 29.735C229.139 29.915 229.429 30.055 229.759 30.155C230.089 30.265 230.499 30.32 230.989 30.32C231.489 30.32 231.859 30.23 232.099 30.05C232.339 29.88 232.494 29.65 232.564 29.36C232.644 29.08 232.689 28.77 232.699 28.43C232.359 28.68 232.014 28.85 231.664 28.94C231.314 29.03 230.989 29.075 230.689 29.075ZM229.159 24.935C229.159 25.505 229.314 25.955 229.624 26.285C229.944 26.615 230.379 26.78 230.929 26.78C231.699 26.78 232.274 26.335 232.654 25.445C232.654 25.125 232.649 24.8 232.639 24.47C232.639 24.13 232.634 23.8 232.624 23.48C232.224 23.22 231.764 23.09 231.244 23.09C230.604 23.09 230.094 23.26 229.714 23.6C229.344 23.93 229.159 24.375 229.159 24.935Z" fill="black"/>
</g>
<defs>
<filter id="filter0_d_7_62" x="0" y="0" width="335" height="53" filterUnits="userSpaceOnUse" color-interpolation-filters="sRGB">
<feFlood flood-opacity="0" result="BackgroundImageFix"/>
<feColorMatrix in="SourceAlpha" type="matrix" values="0 0 0 0 0 0 0 0 0 0 0 0 0 0 0 0 0 0 127 0" result="hardAlpha"/>
<feOffset dy="4"/>
<feGaussianBlur stdDeviation="2"/>
<feComposite in2="hardAlpha" operator="out"/>
<feColorMatrix type="matrix" values="0 0 0 0 0 0 0 0 0 0 0 0 0 0 0 0 0 0 0.25 0"/>
<feBlend mode="normal" in2="BackgroundImageFix" result="effect1_dropShadow_7_62"/>
<feBlend mode="normal" in="SourceGraphic" in2="effect1_dropShadow_7_62" result="shape"/>
</filter>
</defs>
</svg>
